<svg xmlns="http://www.w3.org/2000/svg" width="24" height="25" viewBox="0 0 24 25" fill="none">
  <path fill-rule="evenodd" clip-rule="evenodd" d="M4 13.257C4 17.4584 7.06844 20.9517 11.081 21.6598L11.1284 21.6219C11.1126 21.6189 11.0968 21.6158 11.081 21.6126V15.6173H8.9567V13.257H11.081V11.3687C11.081 9.24441 12.45 8.06424 14.3855 8.06424C14.9992 8.06424 15.6601 8.15865 16.2737 8.25307V10.4246H15.188C14.1494 10.4246 13.9134 10.9439 13.9134 11.6048V13.257H16.1793L15.8017 15.6173H13.9134V21.6126C13.8976 21.6158 13.8818 21.6189 13.866 21.6219L13.9134 21.6598C17.926 20.9517 20.9944 17.4584 20.9944 13.257C20.9944 8.58351 17.1707 4.75977 12.4972 4.75977C7.82374 4.75977 4 8.58351 4 13.257Z" fill="white"/>
</svg>