<svg width="24" height="25" viewBox="0 0 24 25" fill="none" xmlns="http://www.w3.org/2000/svg">
<path d="M11.7255 3.75977C9.35597 3.75977 9.0586 3.77013 8.12796 3.81248C7.19914 3.85502 6.56515 4.00207 6.0104 4.21783C5.43656 4.44068 4.9498 4.73879 4.46485 5.22393C3.97953 5.7089 3.68144 6.19568 3.45787 6.76935C3.24157 7.3243 3.09434 7.95849 3.05253 8.88698C3.01091 9.81765 3 10.1152 3 12.4848C3 14.8544 3.01054 15.1508 3.05271 16.0815C3.09543 17.0104 3.24248 17.6444 3.45805 18.1991C3.68107 18.773 3.97917 19.2598 4.4643 19.7447C4.94907 20.2301 5.43584 20.5289 6.00931 20.7517C6.56442 20.9675 7.1986 21.1146 8.12724 21.1571C9.05787 21.1994 9.35506 21.2098 11.7244 21.2098C14.094 21.2098 14.3905 21.1994 15.3211 21.1571C16.25 21.1146 16.8847 20.9675 17.4398 20.7517C18.0135 20.5289 18.4995 20.2301 18.9843 19.7447C19.4696 19.2598 19.7677 18.773 19.9912 18.1993C20.2057 17.6444 20.353 17.0102 20.3966 16.0817C20.4384 15.151 20.4493 14.8544 20.4493 12.4848C20.4493 10.1152 20.4384 9.81783 20.3966 8.88716C20.353 7.95831 20.2057 7.3243 19.9912 6.76953C19.7677 6.19568 19.4696 5.7089 18.9843 5.22393C18.4989 4.73861 18.0136 4.4405 17.4393 4.21783C16.8831 4.00207 16.2487 3.85502 15.3199 3.81248C14.3892 3.77013 14.093 3.75977 11.7227 3.75977H11.7255ZM10.9428 5.33209C11.1751 5.33172 11.4343 5.33209 11.7255 5.33209C14.055 5.33209 14.3311 5.34045 15.251 5.38226C16.1016 5.42116 16.5633 5.5633 16.8709 5.68272C17.278 5.84086 17.5683 6.02991 17.8735 6.33528C18.1789 6.64066 18.3679 6.93149 18.5264 7.33866C18.6458 7.64585 18.7881 8.10755 18.8269 8.95823C18.8687 9.87799 18.8777 10.1543 18.8777 12.4828C18.8777 14.8113 18.8687 15.0876 18.8269 16.0073C18.788 16.858 18.6458 17.3197 18.5264 17.6269C18.3683 18.0341 18.1789 18.324 17.8735 18.6292C17.5681 18.9346 17.2782 19.1236 16.8709 19.2818C16.5637 19.4017 16.1016 19.5435 15.251 19.5824C14.3313 19.6242 14.055 19.6333 11.7255 19.6333C9.39578 19.6333 9.11968 19.6242 8.19994 19.5824C7.34928 19.5431 6.8876 19.401 6.57987 19.2816C6.17271 19.1234 5.88189 18.9344 5.57652 18.629C5.27116 18.3236 5.08212 18.0335 4.92362 17.6262C4.8042 17.319 4.66188 16.8573 4.62316 16.0066C4.58136 15.0869 4.573 14.8106 4.573 12.4806C4.573 10.1506 4.58136 9.8758 4.62316 8.95605C4.66206 8.10537 4.8042 7.64367 4.92362 7.33611C5.08176 6.92894 5.27116 6.63811 5.57652 6.33274C5.88189 6.02736 6.17271 5.83832 6.57987 5.67982C6.88741 5.55985 7.34928 5.41807 8.19994 5.37898C9.0048 5.34263 9.31671 5.33172 10.9428 5.32991V5.33209ZM16.3827 6.7808C15.8046 6.7808 15.3357 7.24922 15.3357 7.82744C15.3357 8.40547 15.8046 8.87444 16.3827 8.87444C16.9607 8.87444 17.4296 8.40547 17.4296 7.82744C17.4296 7.24941 16.9607 6.7808 16.3827 6.7808ZM11.7255 8.00412C9.25109 8.00412 7.24495 10.0103 7.24495 12.4848C7.24495 14.9592 9.25109 16.9645 11.7255 16.9645C14.1998 16.9645 16.2053 14.9592 16.2053 12.4848C16.2053 10.0103 14.1999 8.00412 11.7255 8.00412ZM11.7255 9.57644C13.3315 9.57644 14.6337 10.8785 14.6337 12.4848C14.6337 14.0909 13.3315 15.3931 11.7255 15.3931C10.1192 15.3931 8.81722 14.0909 8.81722 12.4848C8.81722 10.8785 10.1192 9.57644 11.7255 9.57644Z" fill="white"/>
</svg>
