<svg width="24" height="25" viewBox="0 0 24 25" fill="none" xmlns="http://www.w3.org/2000/svg">
<path d="M10.2664 18.0187C11.6014 18.0187 12.6837 17.063 12.6837 15.6015V4.75977H15.5826C15.42 6.737 17.3855 8.64695 19.5532 8.60327V11.3293C17.6994 11.3293 16.123 10.5454 15.5743 10.1104V15.6015C15.5743 18.0187 13.6728 20.7598 10.2664 20.7598C6.8601 20.7598 5 18.0187 5 15.6015C5 12.1898 8.61044 10.2111 11.0017 10.6947V13.4713C10.8814 13.4288 10.5712 13.3659 10.3069 13.3659C8.96086 13.3162 7.8492 14.408 7.8492 15.6015C7.8492 16.9365 8.93143 18.0187 10.2664 18.0187Z" fill="white"/>
</svg>
