<svg width="24" height="25" viewBox="0 0 24 25" fill="none" xmlns="http://www.w3.org/2000/svg">
<path d="M19.9903 8.94643C20.0977 6.87162 19.3107 5.79844 17.6651 5.76267C15.4472 5.69113 13.9448 6.94317 13.1578 9.51879C14.1594 9.08952 15.5903 8.9822 15.4472 10.6277C15.3757 11.1644 15.0179 11.9871 14.3383 13.0245C12.4781 15.9937 12.0131 14.992 11.0114 8.51716C10.7252 6.69276 9.93824 5.83422 8.68621 5.94153C7.57726 6.04885 5.8244 7.83748 4 9.48302L4.75122 10.4489C5.46667 9.94806 5.86017 9.69765 6.00326 9.69765C7.04067 9.69765 7.57726 12.3806 8.8293 17.0311C9.4732 18.7481 10.2602 19.6067 11.1903 19.6067C12.7285 19.6067 14.5529 18.1758 16.735 15.3497C18.8456 12.631 19.9188 10.5204 19.9903 8.94643Z" fill="white"/>
</svg>
