<svg width="24" height="25" viewBox="0 0 24 25" fill="none" xmlns="http://www.w3.org/2000/svg">
<path fill-rule="evenodd" clip-rule="evenodd" d="M19.8212 6.18801C20.6776 6.41859 21.3529 7.09389 21.5835 7.95036C22.0118 9.51506 21.9953 12.7763 21.9953 12.7763C21.9953 12.7763 21.9953 16.021 21.5835 17.5857C21.3529 18.4422 20.6776 19.1174 19.8212 19.348C18.2565 19.7598 11.9976 19.7598 11.9976 19.7598C11.9976 19.7598 5.75529 19.7598 4.17412 19.3316C3.31765 19.101 2.64235 18.4257 2.41176 17.5692C2 16.021 2 12.7598 2 12.7598C2 12.7598 2 9.51506 2.41176 7.95036C2.64235 7.09389 3.33412 6.40212 4.17412 6.17153C5.73882 5.75977 11.9976 5.75977 11.9976 5.75977C11.9976 5.75977 18.2565 5.75977 19.8212 6.18801ZM15.2091 12.6455L10.0044 15.6432V9.64784L15.2091 12.6455Z" fill="white"/>
</svg>
